# xmcd
#
# Track frame offsets:
#	150
#	33812
#	87262
#	151294
#	189799
#	217472
#	252453
#	301804
#
# Disc length: 4570 seconds
#
# Revision: 0
# Processed by: cddbd v1.5.2PL0 Copyright (c) Steve Scherf et al.
# Submitted via: audiograbber 1.83.01
#
DISCID=6211d808
DTITLE=Grateful Dead - 93-09-20 Madison Square Garden, New York NY
DYEAR=1900
DGENRE=
TTITLE0=Truckin'
TTITLE1=He's Gone
TTITLE2=Drums
TTITLE3=Space
TTITLE4=The Other One
TTITLE5=Going Down The Road Feeling Bad
TTITLE6=Morning Dew
TTITLE7=Baba O'Riley > Tomorrow Never Knows
EXTD=
EXTT0=
EXTT1=
EXTT2=
EXTT3=
EXTT4=
EXTT5=
EXTT6=
EXTT7=
PLAYORDER=
